<svg width="72" height="69" viewBox="0 0 72 69" fill="none" xmlns="http://www.w3.org/2000/svg">
<g filter="url(#filter0_f_237_5283)">
<path d="M29.2639 15.256C31.4881 9.08938 40.2092 9.08939 42.4334 15.256L44.0251 19.6689C45.0261 22.4441 47.6596 24.2938 50.6098 24.2938H54.0733C61.0299 24.2938 63.7274 33.3413 57.9067 37.1509L56.4057 38.1333C53.6926 39.909 52.5541 43.3153 53.6543 46.3654L54.516 48.7546C56.7966 55.0773 49.7218 60.6675 44.0979 56.9867L39.682 54.0966C37.3536 52.5726 34.3437 52.5726 32.0152 54.0966L27.5994 56.9867C21.9754 60.6675 14.9007 55.0773 17.1812 48.7546L18.043 46.3654C19.1431 43.3153 18.0046 39.909 15.2916 38.1333L13.7905 37.1509C7.96981 33.3413 10.6673 24.2938 17.6239 24.2938H21.0874C24.0376 24.2938 26.6712 22.4441 27.6722 19.6689L29.2639 15.256Z" fill="white"/>
<path d="M30.2045 15.5953C32.111 10.3096 39.5862 10.3096 41.4927 15.5953L43.0844 20.0082C44.2284 23.1799 47.2382 25.2938 50.6098 25.2938H54.0733C60.0361 25.2938 62.3483 33.0488 57.3591 36.3142L55.858 37.2966C52.7574 39.3259 51.4563 43.2189 52.7136 46.7047L53.5753 49.0939C55.5301 54.5133 49.466 59.305 44.6455 56.15L40.2296 53.2598C37.5686 51.5182 34.1287 51.5182 31.4676 53.2598L27.0517 56.15C22.2312 59.305 16.1672 54.5133 18.1219 49.0939L18.9837 46.7047C20.241 43.2189 18.9398 39.3259 15.8392 37.2966L14.3382 36.3142C9.34897 33.0488 11.6611 25.2938 17.6239 25.2938H21.0874C24.4591 25.2938 27.4688 23.1799 28.6128 20.0082L30.2045 15.5953Z" stroke="white" stroke-width="2"/>
</g>
<defs>
<filter id="filter0_f_237_5283" x="0.611084" y="0.631042" width="70.4751" height="67.5298" filterUnits="userSpaceOnUse" color-interpolation-filters="sRGB">
<feFlood flood-opacity="0" result="BackgroundImageFix"/>
<feBlend mode="normal" in="SourceGraphic" in2="BackgroundImageFix" result="shape"/>
<feGaussianBlur stdDeviation="5" result="effect1_foregroundBlur_237_5283"/>
</filter>
</defs>
</svg>
